<svg width="20" height="20" viewBox="0 0 20 20" fill="none" xmlns="http://www.w3.org/2000/svg">
<rect width="20" height="20" rx="10" fill="#7E98DF"/>
<path d="M7.34252 15C7.26252 15 7.19452 14.976 7.13852 14.928C7.09052 14.872 7.06652 14.804 7.06652 14.724V14.34C7.06652 14.156 7.16652 13.98 7.36652 13.812L9.91052 11.268C10.5265 10.756 10.9505 10.34 11.1825 10.02C11.4145 9.692 11.5305 9.348 11.5305 8.988C11.5305 8.524 11.3985 8.16 11.1345 7.896C10.8785 7.632 10.5025 7.5 10.0065 7.5C9.54252 7.5 9.17052 7.64 8.89052 7.92C8.61052 8.192 8.43852 8.556 8.37452 9.012C8.35852 9.108 8.31852 9.18 8.25452 9.228C8.19852 9.268 8.13452 9.288 8.06252 9.288H7.43852C7.36652 9.288 7.30652 9.268 7.25852 9.228C7.21052 9.18 7.18652 9.124 7.18652 9.06C7.20252 8.628 7.31852 8.216 7.53452 7.824C7.75052 7.424 8.06652 7.1 8.48252 6.852C8.90652 6.596 9.41452 6.468 10.0065 6.468C10.9105 6.468 11.5905 6.704 12.0465 7.176C12.5105 7.64 12.7425 8.232 12.7425 8.952C12.7425 9.456 12.6145 9.912 12.3585 10.32C12.1105 10.72 11.7225 11.152 11.1945 11.616L8.89052 13.956H12.6345C12.7225 13.956 12.7905 13.984 12.8385 14.04C12.8945 14.088 12.9225 14.152 12.9225 14.232V14.724C12.9225 14.804 12.8945 14.872 12.8385 14.928C12.7825 14.976 12.7145 15 12.6345 15H7.34252Z" fill="white"/>
</svg>
