<svg width="34" height="20" viewBox="0 0 34 20" fill="none" xmlns="http://www.w3.org/2000/svg">
<rect width="33.8462" height="20" rx="10" fill="#7E98DF"/>
<path d="M10.5688 15C10.4888 15 10.4208 14.976 10.3648 14.928C10.3168 14.872 10.2928 14.804 10.2928 14.724V8.004L8.3008 9.54C8.2448 9.588 8.1848 9.612 8.1208 9.612C8.0488 9.612 7.9808 9.572 7.9168 9.492L7.6048 9.096C7.5648 9.04 7.5448 8.984 7.5448 8.928C7.5448 8.832 7.5848 8.756 7.6648 8.7L10.2808 6.684C10.3688 6.628 10.4728 6.6 10.5928 6.6H11.2048C11.2848 6.6 11.3488 6.628 11.3968 6.684C11.4528 6.732 11.4808 6.796 11.4808 6.876V14.724C11.4808 14.804 11.4528 14.872 11.3968 14.928C11.3488 14.976 11.2848 15 11.2048 15H10.5688ZM15.9206 15.12C15.2806 15.12 14.7246 14.992 14.2526 14.736C13.7806 14.472 13.4206 14.12 13.1726 13.68C12.9246 13.24 12.8006 12.76 12.8006 12.24C12.8006 11.816 12.8846 11.416 13.0526 11.04C13.2286 10.656 13.4246 10.316 13.6406 10.02L15.9206 6.84C15.9286 6.832 15.9526 6.804 15.9926 6.756C16.0246 6.708 16.0686 6.672 16.1246 6.648C16.1806 6.616 16.2446 6.6 16.3166 6.6H16.9526C17.0246 6.6 17.0806 6.628 17.1206 6.684C17.1686 6.732 17.1926 6.792 17.1926 6.864C17.1926 6.92 17.1766 6.972 17.1446 7.02L15.3926 9.468C15.5686 9.412 15.7966 9.384 16.0766 9.384C16.6526 9.392 17.1606 9.524 17.6006 9.78C18.0486 10.036 18.3926 10.38 18.6326 10.812C18.8806 11.244 19.0046 11.716 19.0046 12.228C19.0046 12.74 18.8806 13.22 18.6326 13.668C18.3926 14.108 18.0366 14.46 17.5646 14.724C17.1006 14.988 16.5526 15.12 15.9206 15.12ZM15.9086 14.1C16.2526 14.1 16.5686 14.028 16.8566 13.884C17.1526 13.74 17.3846 13.528 17.5526 13.248C17.7286 12.96 17.8166 12.62 17.8166 12.228C17.8166 11.844 17.7286 11.512 17.5526 11.232C17.3846 10.952 17.1526 10.74 16.8566 10.596C16.5686 10.452 16.2526 10.38 15.9086 10.38C15.5726 10.38 15.2566 10.452 14.9606 10.596C14.6726 10.74 14.4406 10.952 14.2646 11.232C14.0886 11.512 14.0006 11.844 14.0006 12.228C14.0006 12.62 14.0886 12.96 14.2646 13.248C14.4406 13.528 14.6726 13.74 14.9606 13.884C15.2486 14.028 15.5646 14.1 15.9086 14.1ZM24.1021 15C24.0221 15 23.9541 14.976 23.8981 14.928C23.8501 14.872 23.8261 14.804 23.8261 14.724V12.996H19.9381C19.8581 12.996 19.7901 12.972 19.7341 12.924C19.6861 12.868 19.6621 12.8 19.6621 12.72V12.24C19.6621 12.12 19.7061 12 19.7941 11.88L23.3941 6.804C23.4341 6.74 23.4941 6.692 23.5741 6.66C23.6541 6.62 23.7421 6.6 23.8381 6.6H24.7021C24.7821 6.6 24.8461 6.628 24.8941 6.684C24.9501 6.732 24.9781 6.796 24.9781 6.876V11.952H26.0581C26.1381 11.952 26.2061 11.98 26.2621 12.036C26.3181 12.084 26.3461 12.148 26.3461 12.228V12.72C26.3461 12.8 26.3181 12.868 26.2621 12.924C26.2141 12.972 26.1501 12.996 26.0701 12.996H24.9781V14.724C24.9781 14.804 24.9501 14.872 24.8941 14.928C24.8461 14.976 24.7821 15 24.7021 15H24.1021ZM23.8381 11.976V7.86L20.9461 11.976H23.8381Z" fill="white"/>
</svg>
