<svg width="20" height="20" viewBox="0 0 20 20" fill="none" xmlns="http://www.w3.org/2000/svg">
<rect width="20" height="20" rx="10" fill="#7E98DF"/>
<path d="M10.7456 15C10.6656 15 10.5976 14.976 10.5416 14.928C10.4936 14.872 10.4696 14.804 10.4696 14.724V8.004L8.47759 9.54C8.42159 9.588 8.36159 9.612 8.29759 9.612C8.22559 9.612 8.15759 9.572 8.09359 9.492L7.78159 9.096C7.74159 9.04 7.72159 8.984 7.72159 8.928C7.72159 8.832 7.76159 8.756 7.84159 8.7L10.4576 6.684C10.5456 6.628 10.6496 6.6 10.7696 6.6H11.3816C11.4616 6.6 11.5256 6.628 11.5736 6.684C11.6296 6.732 11.6576 6.796 11.6576 6.876V14.724C11.6576 14.804 11.6296 14.872 11.5736 14.928C11.5256 14.976 11.4616 15 11.3816 15H10.7456Z" fill="white"/>
</svg>
